{
  "source": "C:\\Users\\Peter\\Desktop\\stuff\\MIUN\\quantitative_research\\video_compression\\videos\\BVI-HD\\MartialArts_1920x1080_60fps.mp4",
  "output": "C:\\Users\\Peter\\Desktop\\stuff\\MIUN\\quantitative_research\\video_compression\\compressed_videos\\BVI-HD\\vp9\\12\\MartialArts_1920x1080_60fps_vp9.webm",
  "codec": "vp9",
  "ok": "Input #0, mov,mp4,m4a,3gp,3g2,mj2, from 'C:\\Users\\Peter\\Desktop\\stuff\\MIUN\\quantitative_research\\video_compression\\videos\\BVI-HD\\MartialArts_1920x1080_60fps.mp4':\n  Metadata:\n    major_brand     : isom\n    minor_version   : 512\n    compatible_brands: isomiso2avc1mp41\n    encoder         : Lavf54.28.101\n  Duration: 00:00:05.00, start: 0.000000, bitrate: 120609 kb/s\n  Stream #0:0[0x1](und): Video: h264 (High 4:4:4 Predictive) (avc1 / 0x31637661), yuv420p(progressive), 1920x1080, 120605 kb/s, 60 fps, 60 tbr, 60 tbn (default)\n    Metadata:\n      handler_name    : VideoHandler\n      vendor_id       : [0][0][0][0]\n[out#0/webm @ 0000017425989440] Codec AVOption b:a (set bitrate (in bits/s)) has not been used for any stream. The most likely reason is either wrong type (e.g. a video option with no video streams) or that it is a private option of some decoder which was not actually used for any stream.\nStream mapping:\n  Stream #0:0 -> #0:0 (h264 (native) -> vp9 (libvpx-vp9))\nPress [q] to stop, [?] for help\n[libvpx-vp9 @ 000001742598d180] v1.15.2-100-g40561f514\nOutput #0, webm, to 'C:\\Users\\Peter\\Desktop\\stuff\\MIUN\\quantitative_research\\video_compression\\compressed_videos\\BVI-HD\\vp9\\12\\MartialArts_1920x1080_60fps_vp9.webm':\n  Metadata:\n    major_brand     : isom\n    minor_version   : 512\n    compatible_brands: isomiso2avc1mp41\n    encoder         : Lavf62.3.100\n  Stream #0:0(und): Video: vp9, yuv420p(tv, progressive), 1920x1080, q=2-31, 12000 kb/s, 60 fps, 1k tbn (default)\n    Metadata:\n      encoder         : Lavc62.11.100 libvpx-vp9\n      handler_name    : VideoHandler\n      vendor_id       : [0][0][0][0]\n    Side data:\n      cpb: bitrate max/min/avg: 0/0/0 buffer size: 12000000 vbv_delay: N/A\nframe=    3 fps=0.0 q=39.0 size=       1KiB time=00:00:00.05 bitrate= 101.3kbits/s speed=0.097x elapsed=0:00:00.51    \nframe=    9 fps=8.5 q=16.0 size=       1KiB time=00:00:00.15 bitrate=  33.8kbits/s speed=0.142x elapsed=0:00:01.05    \nframe=   14 fps=8.9 q=16.0 size=       1KiB time=00:00:00.23 bitrate=  21.7kbits/s speed=0.148x elapsed=0:00:01.57    \nframe=   20 fps=9.6 q=16.0 size=       1KiB time=00:00:00.31 bitrate=  16.0kbits/s speed=0.152x elapsed=0:00:02.07    \nframe=   24 fps=9.2 q=16.0 size=       1KiB time=00:00:00.40 bitrate=  12.7kbits/s speed=0.153x elapsed=0:00:02.60    \nframe=   30 fps=9.5 q=16.0 size=       1KiB time=00:00:00.50 bitrate=  10.1kbits/s speed=0.159x elapsed=0:00:03.14    \nframe=   35 fps=9.5 q=16.0 size=       1KiB time=00:00:00.58 bitrate=   8.7kbits/s speed=0.159x elapsed=0:00:03.67    \nframe=   40 fps=9.5 q=15.0 size=       1KiB time=00:00:00.66 bitrate=   7.6kbits/s speed=0.159x elapsed=0:00:04.19    \nframe=   46 fps=9.8 q=16.0 size=       1KiB time=00:00:00.76 bitrate=   6.6kbits/s speed=0.163x elapsed=0:00:04.71    \nframe=   51 fps=9.7 q=15.0 size=       1KiB time=00:00:00.85 bitrate=   6.0kbits/s speed=0.162x elapsed=0:00:05.23    \nframe=   57 fps=9.9 q=16.0 size=       1KiB time=00:00:00.95 bitrate=   5.3kbits/s speed=0.165x elapsed=0:00:05.77    \nframe=   62 fps=9.8 q=15.0 size=       1KiB time=00:00:01.03 bitrate=   4.9kbits/s speed=0.164x elapsed=0:00:06.31    \nframe=   68 fps=9.9 q=15.0 size=       1KiB time=00:00:01.13 bitrate=   4.5kbits/s speed=0.165x elapsed=0:00:06.86    \nframe=   72 fps=9.8 q=15.0 size=       1KiB time=00:00:01.20 bitrate=   4.2kbits/s speed=0.163x elapsed=0:00:07.37    \nframe=   78 fps=9.9 q=15.0 size=       1KiB time=00:00:01.30 bitrate=   3.9kbits/s speed=0.165x elapsed=0:00:07.89    \nframe=   84 fps= 10 q=16.0 size=       1KiB time=00:00:01.40 bitrate=   3.6kbits/s speed=0.166x elapsed=0:00:08.44    \nframe=   89 fps=9.9 q=15.0 size=       1KiB time=00:00:01.48 bitrate=   3.4kbits/s speed=0.166x elapsed=0:00:08.95    \nframe=   95 fps= 10 q=15.0 size=       1KiB time=00:00:01.58 bitrate=   3.2kbits/s speed=0.167x elapsed=0:00:09.47    \nframe=  100 fps= 10 q=15.0 size=       1KiB time=00:00:01.66 bitrate=   3.0kbits/s speed=0.167x elapsed=0:00:09.99    \nframe=  106 fps= 10 q=15.0 size=       1KiB time=00:00:01.76 bitrate=   2.9kbits/s speed=0.168x elapsed=0:00:10.50    \nframe=  111 fps= 10 q=15.0 size=       1KiB time=00:00:01.85 bitrate=   2.7kbits/s speed=0.168x elapsed=0:00:11.02    \nframe=  118 fps= 10 q=15.0 size=       1KiB time=00:00:01.96 bitrate=   2.6kbits/s speed=0.171x elapsed=0:00:11.53    \nframe=  123 fps= 10 q=14.0 size=       1KiB time=00:00:02.05 bitrate=   2.5kbits/s speed=0.17x elapsed=0:00:12.05    \nframe=  128 fps= 10 q=14.0 size=       1KiB time=00:00:02.13 bitrate=   2.4kbits/s speed=0.169x elapsed=0:00:12.60    \nframe=  135 fps= 10 q=15.0 size=    2304KiB time=00:00:02.25 bitrate=8388.6kbits/s speed=0.172x elapsed=0:00:13.11    \nframe=  141 fps= 10 q=14.0 size=    2304KiB time=00:00:02.35 bitrate=8031.6kbits/s speed=0.172x elapsed=0:00:13.63    \nframe=  146 fps= 10 q=15.0 size=    2304KiB time=00:00:02.43 bitrate=7756.6kbits/s speed=0.172x elapsed=0:00:14.14    \nframe=  151 fps= 10 q=15.0 size=    2304KiB time=00:00:02.51 bitrate=7499.7kbits/s speed=0.172x elapsed=0:00:14.66    \nframe=  157 fps= 10 q=15.0 size=    2304KiB time=00:00:02.61 bitrate=7213.1kbits/s speed=0.172x elapsed=0:00:15.17    \nframe=  162 fps= 10 q=16.0 size=    2304KiB time=00:00:02.70 bitrate=6990.5kbits/s speed=0.172x elapsed=0:00:15.69    \nframe=  167 fps= 10 q=16.0 size=    2304KiB time=00:00:02.78 bitrate=6781.2kbits/s speed=0.172x elapsed=0:00:16.21    \nframe=  172 fps= 10 q=16.0 size=    2304KiB time=00:00:02.86 bitrate=6584.1kbits/s speed=0.171x elapsed=0:00:16.73    \nframe=  177 fps= 10 q=16.0 size=    2304KiB time=00:00:02.95 bitrate=6398.1kbits/s speed=0.171x elapsed=0:00:17.25    \nframe=  182 fps= 10 q=16.0 size=    2304KiB time=00:00:03.03 bitrate=6222.3kbits/s speed=0.171x elapsed=0:00:17.77    \nframe=  187 fps= 10 q=16.0 size=    2304KiB time=00:00:03.11 bitrate=6055.9kbits/s speed=0.17x elapsed=0:00:18.29    \nframe=  193 fps= 10 q=16.0 size=    2304KiB time=00:00:03.21 bitrate=5867.7kbits/s speed=0.171x elapsed=0:00:18.79    \nframe=  199 fps= 10 q=16.0 size=    2304KiB time=00:00:03.30 bitrate=5719.5kbits/s speed=0.171x elapsed=0:00:19.32    \nframe=  203 fps= 10 q=15.0 size=    2304KiB time=00:00:03.38 bitrate=5578.6kbits/s speed=0.17x elapsed=0:00:19.87    \nframe=  208 fps= 10 q=16.0 size=    2304KiB time=00:00:03.46 bitrate=5444.5kbits/s speed=0.17x elapsed=0:00:20.39    \nframe=  214 fps= 10 q=15.0 size=    2304KiB time=00:00:03.55 bitrate=5316.7kbits/s speed=0.17x elapsed=0:00:20.91    \nframe=  219 fps= 10 q=15.0 size=    2304KiB time=00:00:03.65 bitrate=5171.1kbits/s speed=0.17x elapsed=0:00:21.45    \nframe=  223 fps= 10 q=15.0 size=    2304KiB time=00:00:03.71 bitrate=5078.3kbits/s speed=0.169x elapsed=0:00:21.97    \nframe=  229 fps= 10 q=14.0 size=    2304KiB time=00:00:03.81 bitrate=4945.2kbits/s speed=0.17x elapsed=0:00:22.48    \nframe=  235 fps= 10 q=14.0 size=    2304KiB time=00:00:03.91 bitrate=4819.0kbits/s speed=0.17x elapsed=0:00:23.01    \nframe=  240 fps= 10 q=14.0 size=    2304KiB time=00:00:04.00 bitrate=4718.6kbits/s speed=0.17x elapsed=0:00:23.54    \nframe=  245 fps= 10 q=15.0 size=    2304KiB time=00:00:04.08 bitrate=4622.3kbits/s speed=0.17x elapsed=0:00:24.07    \nframe=  251 fps= 10 q=16.0 size=    2304KiB time=00:00:04.18 bitrate=4511.8kbits/s speed=0.17x elapsed=0:00:24.58    \nframe=  256 fps= 10 q=17.0 size=    2304KiB time=00:00:04.26 bitrate=4423.7kbits/s speed=0.17x elapsed=0:00:25.12    \nframe=  262 fps= 10 q=17.0 size=    5120KiB time=00:00:04.36 bitrate=9605.3kbits/s speed=0.17x elapsed=0:00:25.64    \nframe=  267 fps= 10 q=15.0 size=    5120KiB time=00:00:04.45 bitrate=9425.4kbits/s speed=0.17x elapsed=0:00:26.20    \nframe=  272 fps= 10 q=15.0 size=    5120KiB time=00:00:04.51 bitrate=9286.3kbits/s speed=0.169x elapsed=0:00:26.74    \nframe=  276 fps= 10 q=20.0 size=    5120KiB time=00:00:04.60 bitrate=9118.1kbits/s speed=0.169x elapsed=0:00:27.28    \nframe=  276 fps=9.9 q=20.0 size=    5120KiB time=00:00:04.60 bitrate=9118.1kbits/s speed=0.165x elapsed=0:00:27.80    \nframe=  276 fps=9.7 q=20.0 size=    5120KiB time=00:00:04.60 bitrate=9118.1kbits/s speed=0.162x elapsed=0:00:28.34    \nframe=  276 fps=9.6 q=20.0 size=    5120KiB time=00:00:04.60 bitrate=9118.1kbits/s speed=0.159x elapsed=0:00:28.87    \nframe=  276 fps=9.4 q=20.0 size=    5120KiB time=00:00:04.60 bitrate=9118.1kbits/s speed=0.156x elapsed=0:00:29.40    \n[out#0/webm @ 0000017425989440] video:6334KiB audio:0KiB subtitle:0KiB other streams:0KiB global headers:0KiB muxing overhead: 0.047305%\nframe=  300 fps= 10 q=16.0 Lsize=    6337KiB time=00:00:05.00 bitrate=10381.9kbits/s speed=0.169x elapsed=0:00:29.66    \n",
  "seconds": 29.875370502471924,
  "probe_out": {}
}